# xmcd
#
# Track frame offsets:
# 150
# 18092
# 35381
# 59045
# 84274
# 101704
# 120294
# 137644
# 159084
# 176089
# 203091
# 222725
# 238070
#
# Disc length: 3435 seconds
#
#
# Revision: 0
# Processed by: cddbd v1.5.2PL0 Copyright (c) Steve Scherf et al.
# Submitted via: FreeRIP 2.951 
#
DISCID=ab0d690d
DTITLE=Chickenfly - felráz
DYEAR=2006
DGENRE=Christian Rock
TTITLE0=Titok
TTITLE1=7.sebesség
TTITLE2=Érzés
TTITLE3=Tudom jól
TTITLE4=Hello
TTITLE5=Egy álom
TTITLE6=Várnak még rám
TTITLE7=Felráz
TTITLE8=Fényt hoztál
TTITLE9=Instrumentál
TTITLE10=Az élet jó
TTITLE11=Füstös kocsmák
TTITLE12=Csak egy perc
EXTD=
EXTT0=
EXTT1=
EXTT2=
EXTT3=
EXTT4=
EXTT5=
EXTT6=
EXTT7=
EXTT8=
EXTT9=
EXTT10=
EXTT11=
EXTT12=
PLAYORDER=
